<?xml version="1.0" encoding="UTF-8"?>
<svg xmlns="http://www.w3.org/2000/svg" viewBox="0 0 52.97 41.44" version="1.2" baseProfile="tiny-ps">
  <defs>
    <style>.cls-1{fill:#e51f26;}</style>
  </defs>
  <g id="Layer_2" data-name="Layer 2">
    <g id="Layer_1-2" data-name="Layer 1">
      <polygon class="cls-1" points="52.97 20.86 49.23 34.07 47.15 41.44 34.21 41.44 35.23 37.85 36.3 34.07 22.39 34.07 26.13 20.86 52.97 20.86"/>
      <path class="cls-1" d="M52,0,48.22,13.49l-1.63,5.7H33.28l1.61-5.7H21.12l-1.61,5.7L19,20.86,15.3,34.07l-.6,2.16-1.49,5.21H0l2.09-7.37L5.83,20.86l.47-1.67,1.45-5.07.2-.63A19.49,19.49,0,0,1,24.94,0c.43,0,.84,0,1.27,0Z"/>
    </g>
  </g>
<title>Cyber AR</title></svg>
