<?xml version="1.0" standalone="no"?>
<!DOCTYPE svg PUBLIC "-//W3C//DTD SVG 20010904//EN"
 "http://www.w3.org/TR/2001/REC-SVG-20010904/DTD/svg10.dtd">
<svg version="1.0" xmlns="http://www.w3.org/2000/svg"
 width="300.000000pt" height="147.000000pt" viewBox="0 0 300.000000 147.000000"
 preserveAspectRatio="xMidYMid meet">
<metadata>
Created by potrace 1.10, written by Peter Selinger 2001-2011
</metadata>
<g transform="translate(0.000000,147.000000) scale(0.100000,-0.100000)"
fill="#000000" stroke="none">
<path d="M1377 1446 c-98 -27 -207 -127 -250 -231 -14 -34 -177 -595 -177
-610 0 -3 62 -5 138 -5 l137 0 69 248 c38 136 75 266 81 290 l11 43 140 0 c76
0 142 0 146 0 4 -1 1 -16 -6 -33 -7 -18 -16 -44 -19 -58 l-6 -25 140 0 140 0
10 40 c9 34 79 281 95 338 5 16 -14 17 -298 16 -213 0 -317 -4 -351 -13z m600
-22 c3 -8 -11 -74 -32 -147 -56 -197 -39 -177 -149 -177 -100 0 -108 4 -99 51
3 17 -2 31 -17 44 -20 18 -37 20 -156 20 -120 0 -135 -2 -153 -20 -16 -17 -80
-223 -147 -475 -21 -79 -30 -85 -129 -85 -46 0 -87 3 -91 8 -4 4 14 82 40 175
26 92 59 208 72 257 54 198 124 284 276 341 60 22 76 23 321 23 225 1 258 -1
264 -15z"/>
<path d="M1480 988 c-18 -68 -57 -201 -65 -221 -7 -17 1 -18 136 -16 79 1 145
-1 147 -5 2 -5 -23 -99 -36 -134 -3 -10 25 -12 133 -10 l138 3 53 190 c30 105
57 200 60 213 l6 22 -281 0 -280 0 -11 -42z m515 0 c4 -4 -9 -67 -29 -140 -21
-73 -39 -141 -41 -150 -5 -23 -24 -58 -33 -59 -4 -1 -39 -3 -78 -5 -94 -4
-110 7 -95 63 6 22 9 48 5 56 -8 21 -64 39 -111 37 -21 -1 -62 -2 -90 -1 -49
1 -53 3 -53 25 0 38 40 160 57 173 17 13 455 14 468 1z"/>
<path d="M400 368 c0 -15 121 -153 147 -166 24 -13 25 -17 20 -78 l-5 -64 29
0 29 0 0 70 c0 54 3 70 15 70 11 0 155 159 155 172 0 2 -16 2 -35 0 -28 -3
-44 -15 -82 -63 -63 -78 -85 -84 -132 -33 -20 21 -45 51 -56 65 -20 25 -85 46
-85 27z"/>
<path d="M48 341 c-31 -27 -33 -34 -36 -108 -7 -149 22 -173 206 -173 l122 0
0 25 0 25 -120 0 c-150 0 -160 6 -160 105 0 99 10 105 160 105 l120 0 0 25 0
25 -130 0 c-129 0 -130 0 -162 -29z"/>
<path d="M845 215 l0 -155 143 0 c138 0 144 1 167 24 33 33 40 68 22 102 -13
25 -13 32 0 57 18 35 10 70 -22 103 -23 23 -29 24 -167 24 l-143 0 0 -155z
m285 85 c8 -14 8 -26 0 -40 -10 -18 -21 -20 -120 -20 l-110 0 0 40 0 40 110 0
c99 0 110 -2 120 -20z m-6 -126 c20 -19 20 -29 0 -48 -12 -13 -38 -16 -120
-16 l-104 0 0 40 0 40 104 0 c82 0 108 -3 120 -16z"/>
<path d="M1284 336 c-33 -33 -34 -36 -34 -120 0 -81 2 -88 29 -118 l29 -33
136 -3 136 -4 0 26 0 26 -118 0 c-129 0 -156 9 -164 55 l-5 25 133 0 134 0 0
25 0 25 -136 0 -135 0 6 23 c15 49 38 57 166 57 l119 0 0 25 0 25 -131 0 -131
0 -34 -34z"/>
<path d="M1630 215 l0 -155 28 0 c26 0 27 1 24 50 l-4 50 69 0 69 0 37 -50
c33 -44 42 -50 73 -50 l36 0 -42 50 -42 50 27 12 c51 23 70 95 38 148 -25 43
-53 50 -188 50 l-125 0 0 -155z m262 88 c22 -20 23 -51 1 -75 -13 -15 -32 -18
-115 -18 l-98 0 0 55 0 55 97 0 c76 0 100 -4 115 -17z"/>
<path d="M2302 357 c-32 -18 -43 -38 -92 -162 -24 -60 -48 -116 -53 -123 -7
-9 -1 -12 25 -12 31 0 36 4 44 33 l10 32 116 3 116 3 13 -36 c11 -29 18 -35
41 -35 15 0 28 1 28 3 0 3 -83 209 -107 265 -15 36 -98 53 -141 29z m90 -54
c8 -10 24 -42 36 -70 l21 -53 -95 0 c-51 0 -94 2 -94 4 0 11 45 104 58 119 8
9 25 17 37 17 12 0 29 -8 37 -17z"/>
<path d="M2610 215 l0 -155 25 0 c23 0 25 3 25 50 l0 50 64 0 65 0 38 -50 c34
-44 42 -49 77 -50 l39 0 -43 46 -42 46 36 29 c43 36 55 83 32 127 -29 56 -47
62 -188 62 l-128 0 0 -155z m254 92 c21 -16 24 -60 6 -82 -10 -11 -36 -15
-111 -15 l-99 0 0 55 0 55 93 0 c62 0 99 -4 111 -13z"/>
</g>
</svg>
